<?xml version="1.0" encoding="utf-8"?>
<!-- Generator: Adobe Illustrator 26.0.1, SVG Export Plug-In . SVG Version: 6.00 Build 0)  -->
<svg version="1.1" id="Layer_1" xmlns="http://www.w3.org/2000/svg" xmlns:xlink="http://www.w3.org/1999/xlink" x="0px" y="0px"
	 viewBox="0 0 260 260" style="enable-background:new 0 0 260 260;" xml:space="preserve">
<style type="text/css">
	.st0{fill:#FFFFFF;stroke:#000000;stroke-miterlimit:10;}
	.st1{fill:#565A42;stroke:#565A42;stroke-miterlimit:10;}
	.st2{fill:#FFFFFF;stroke:#FFFFFF;stroke-miterlimit:10;}
	.st3{fill:#F2C85E;stroke:#F2C85E;stroke-miterlimit:10;}
</style>
<path class="st0" d="M0,260"/>
<path class="st1" d="M130,260L130,260C58.2,260,0,201.8,0,130v0C0,58.2,58.2,0,130,0h0c71.8,0,130,58.2,130,130v0
	C260,201.8,201.8,260,130,260z"/>
<g>
	<path class="st2" d="M80.95,66l45.75,59.61c7.64-10.8,15.9-21.84,23.93-32.56C157.31,84.13,164.15,75,170.62,66H80.95z"/>
</g>
<g>
	<g>
		<path class="st2" d="M196.29,76.67l-1.23-6.9c1.64-0.33,7.24-1.83,10.42-7.13c2.77-4.62,2.73-10.53-0.1-15.07
			c-3.97-6.37-12.37-8.19-18.61-6.69c-6.09,1.46-9.52,5.97-10.71,7.84l-5.68-3.81c1.65-2.59,6.4-8.83,14.92-10.88
			c8.28-1.99,19.89,0.19,25.81,9.68c4.24,6.79,4.29,15.66,0.13,22.58C206.61,74.04,198.63,76.19,196.29,76.67z"/>
	</g>
</g>
<g>
	<polygon class="st3" points="95,235.06 126.49,220.81 160,235.06 	"/>
	<path class="st3" d="M184.34,240H71.99l54.43-24.63L184.34,240z M118.01,230.12h17.65l-9.1-3.87L118.01,230.12z"/>
</g>
<polygon class="st3" points="77.24,55.01 126.69,114.73 175.82,55.01 191.2,55 131.35,123.86 131.35,217.96 122.23,217.96 
	122.23,123.89 59,55 "/>
</svg>
